<svg xmlns="http://www.w3.org/2000/svg" viewBox="0 0 64 64" fill="none">
  <!-- Shield/badge shape -->
  <rect x="2" y="2" width="60" height="60" rx="14" fill="#1E40AF"/>

  <!-- Snowflake -->
  <g transform="translate(32, 32)" stroke="#38BDF8" stroke-width="2.5" stroke-linecap="round">
    <line x1="0" y1="-16" x2="0" y2="16"/>
    <line x1="-13.86" y1="-8" x2="13.86" y2="8"/>
    <line x1="-13.86" y1="8" x2="13.86" y2="-8"/>
    <line x1="0" y1="-16" x2="-4" y2="-11"/>
    <line x1="0" y1="-16" x2="4" y2="-11"/>
    <line x1="0" y1="16" x2="-4" y2="11"/>
    <line x1="0" y1="16" x2="4" y2="11"/>
    <line x1="-13.86" y1="-8" x2="-9.86" y2="-3.5"/>
    <line x1="13.86" y1="8" x2="9.86" y2="3.5"/>
    <line x1="-13.86" y1="8" x2="-9.86" y2="3.5"/>
    <line x1="13.86" y1="-8" x2="9.86" y2="-3.5"/>
  </g>

  <!-- Wind lines -->
  <g stroke="#F97316" stroke-width="2" stroke-linecap="round" opacity="0.9">
    <path d="M42 18 Q48 18 51 15" fill="none"/>
    <path d="M42 32 Q50 32 54 32" fill="none"/>
    <path d="M42 46 Q48 46 51 49" fill="none"/>
  </g>
</svg>
